<svg xmlns="http://www.w3.org/2000/svg" viewBox="0 0 5.88 5.88">
<style>
  @media (prefers-color-scheme: dark) {
    svg { fill: white; }
  }
  @media (prefers-color-scheme: light) {
    svg { fill: black; }
  }
</style>
<path d="m1.6278 3.9188c-0.14245 0.023959-0.27166 0.083898-0.36443 0.16888-0.09154 0.083869-0.16115 0.20713-0.13748 0.34784 0.023672 0.14071 0.12978 0.23441 0.24372 0.28372 0.11547 0.049964 0.25718 0.064316 0.39963 0.040357 0.14245-0.023958 0.27166-0.083898 0.36443-0.1689 0.091543-0.083841 0.16115-0.20713 0.13748-0.34784-0.023672-0.14071-0.12978-0.23441-0.24372-0.28372-0.11547-0.049935-0.25718-0.064316-0.39963-0.040329zm-0.22164 0.46957c-0.00237-0.014068 0.00127-0.047235 0.049193-0.091117 0.046701-0.042802 0.12319-0.081965 0.2196-0.098193 0.096409-0.016228 0.1815-0.00423 0.23963 0.020918 0.059655 0.025806 0.073937 0.05596 0.076304 0.070029 0.00237 0.014097-0.00127 0.047235-0.049193 0.091145-0.046701 0.042773-0.12319 0.081965-0.2196 0.098165-0.096409 0.016228-0.1815 0.00423-0.23963-0.020918-0.059655-0.025806-0.073937-0.055932-0.076304-0.070029z"/>
<path d="m2.8653 1.1303c0.041892-0.025894 0.094215-0.028247 0.13827-0.0062213l1.1368 0.56841c0.04931 0.024658 0.079919 0.075619 0.078498 0.13074-0.00139 0.055119-0.03456 0.10445-0.085092 0.12655l-1.0517 0.46011v0.83227c0.9164 0.019838 1.7679 0.23092 2.4786 0.58154 0.07037 0.03473 0.099302 0.11994 0.064572 0.1903-0.03473 0.070398-0.11994 0.099302-0.1903 0.064572-0.706-0.34827-1.5656-0.55375-2.495-0.55375-0.92941 0-1.789 0.20548-2.495 0.55375-0.070384 0.03473-0.15559 0.00583-0.19031-0.064572-0.034722-0.07037-0.005809-0.15557 0.064575-0.1903 0.71074-0.35063 1.5622-0.56171 2.4786-0.58154v-1.991c0-0.04925 0.025493-0.094988 0.067386-0.12088zm0.21682 0.96938 0.65982-0.28867-0.65982-0.3299z"/>
<path d="m4.5031 4.2354c0.07847 0 0.1421-0.063634 0.1421-0.1421 0-0.078469-0.063634-0.1421-0.1421-0.1421-0.07847 0-0.1421 0.063634-0.1421 0.1421 0 0.07847 0.063634 0.1421 0.1421 0.1421z"/>
</svg>
